<svg version="1.1" id="Слой_1" xmlns:svgjs="http://svgjs.com/svgjs"
	 xmlns="http://www.w3.org/2000/svg" xmlns:xlink="http://www.w3.org/1999/xlink" x="0px" y="0px" viewBox="0 0 512 512"
	 style="enable-background:new 0 0 512 512;" xml:space="preserve" fill="#B3B3B3">
<g>
	<path d="M464,256H176c-26.5,0-48,21.5-48,48v16h384v-16C512,277.5,490.5,256,464,256z M128,464c0,26.5,21.5,48,48,48h288
		c26.5,0,48-21.5,48-48V352H128V464z M432,432c8.8,0,16,7.2,16,16s-7.2,16-16,16s-16-7.2-16-16S423.2,432,432,432z M352,432h32
		c8.8,0,16,7.2,16,16s-7.2,16-16,16h-32c-8.8,0-16-7.2-16-16S343.2,432,352,432z"/>
	<path d="M296,224V48c0-26.4-21.6-48-48-48H48C21.6,0,0,21.6,0,48v352c0,26.4,21.6,48,48,48h48V304c0-44.2,35.8-80,80-80H296z
		 M120.2,80c-8.8,0-16-7.2-16-16s7.2-16,16-16h55.6c8.8,0,16,7.2,16,16s-7.2,16-16,16H120.2z"/>
</g>
</svg>
